<svg xmlns="http://www.w3.org/2000/svg" xmlns:xlink="http://www.w3.org/1999/xlink" xml:space="preserve" version="1.1" style="shape-rendering:geometricPrecision;text-rendering:geometricPrecision;image-rendering:optimizeQuality;" viewBox="0 0 847 1058.75" x="0px" y="0px" fill-rule="evenodd" clip-rule="evenodd"><defs><style type="text/css">
   
    .fil0 {fill:black}
   
  </style></defs><g><path class="fil0" d="M423 12c227,0 411,184 411,411 0,227 -184,411 -411,411 -227,0 -411,-184 -411,-411 0,-227 184,-411 411,-411zm-2 151c84,0 152,68 152,152 0,84 -68,152 -152,152 -84,0 -152,-68 -152,-152 0,-84 68,-152 152,-152zm-125 328c85,0 170,0 255,0 58,0 106,47 106,105l0 60c-60,60 -143,97 -234,97 -91,0 -173,-37 -233,-97l0 -60c0,-58 48,-105 106,-105zm127 -423c197,0 356,159 356,355 0,197 -159,356 -356,356 -196,0 -355,-159 -355,-356 0,-196 159,-355 355,-355z"/></g><text x="0" y="862" fill="#000000" font-size="5px" font-weight="bold" font-family="'Helvetica Neue', Helvetica, Arial-Unicode, Arial, Sans-serif">Created by amantaka</text><text x="0" y="867" fill="#000000" font-size="5px" font-weight="bold" font-family="'Helvetica Neue', Helvetica, Arial-Unicode, Arial, Sans-serif">from the Noun Project</text></svg>